<svg width="22" height="22" viewBox="0 0 22 22" fill="none" xmlns="http://www.w3.org/2000/svg">
<path d="M15.5837 18.3337L14.9193 19.0811C15.2136 19.3427 15.6341 19.4072 15.9933 19.2459C16.3525 19.0846 16.5837 18.7275 16.5837 18.3337H15.5837ZM6.41699 18.3337H5.41699C5.41699 18.7275 5.6481 19.0846 6.00734 19.2459C6.36657 19.4072 6.78703 19.3427 7.08136 19.0811L6.41699 18.3337ZM13.1263 16.1493L12.4619 16.8967L13.1263 16.1493ZM11.5735 15.0194L11.8601 14.0613L11.5735 15.0194ZM10.4272 15.0194L10.7137 15.9774L10.4272 15.0194ZM14.4916 3.88498L14.0376 4.77599L14.4916 3.88498ZM15.3657 4.75901L14.4747 5.213L15.3657 4.75901ZM7.50901 3.88498L7.05502 2.99397L7.50901 3.88498ZM6.63498 4.75901L5.74397 4.30502L6.63498 4.75901ZM9.61699 4.66699H12.3837V2.66699H9.61699V4.66699ZM14.5837 6.86699V18.3337H16.5837V6.86699H14.5837ZM7.41699 18.3337V6.86699H5.41699V18.3337H7.41699ZM16.248 17.5863L13.7907 15.4019L12.4619 16.8967L14.9193 19.0811L16.248 17.5863ZM8.21 15.4019L5.75263 17.5863L7.08136 19.0811L9.53872 16.8967L8.21 15.4019ZM13.7907 15.4019C13.4261 15.0779 13.1107 14.7966 12.8316 14.5847C12.5426 14.3653 12.2331 14.1729 11.8601 14.0613L11.2869 15.9774C11.3384 15.9928 11.4291 16.0311 11.6223 16.1777C11.8254 16.3319 12.0742 16.5521 12.4619 16.8967L13.7907 15.4019ZM9.53872 16.8967C9.92641 16.5521 10.1752 16.3319 10.3783 16.1777C10.5715 16.0311 10.6623 15.9928 10.7137 15.9774L10.1406 14.0613C9.7676 14.1729 9.45807 14.3653 9.16905 14.5847C8.88994 14.7966 8.57455 15.0779 8.21 15.4019L9.53872 16.8967ZM11.8601 14.0613C11.2992 13.8936 10.7015 13.8936 10.1406 14.0613L10.7137 15.9774C10.9007 15.9215 11.0999 15.9215 11.2869 15.9774L11.8601 14.0613ZM12.3837 4.66699C12.9602 4.66699 13.3325 4.66777 13.6158 4.69092C13.8875 4.71312 13.9882 4.75079 14.0376 4.77599L14.9456 2.99397C14.5673 2.80118 14.174 2.72986 13.7787 2.69756C13.395 2.66621 12.9272 2.66699 12.3837 2.66699V4.66699ZM16.5837 6.86699C16.5837 6.32344 16.5844 5.85564 16.5531 5.47196C16.5208 5.07662 16.4495 4.6834 16.2567 4.30502L14.4747 5.213C14.4999 5.26245 14.5375 5.36316 14.5597 5.63483C14.5829 5.91817 14.5837 6.29044 14.5837 6.86699H16.5837ZM14.0376 4.77599C14.2258 4.87186 14.3788 5.02484 14.4747 5.213L16.2567 4.30502C15.9691 3.74053 15.5101 3.28159 14.9456 2.99397L14.0376 4.77599ZM9.61699 2.66699C9.07344 2.66699 8.60564 2.66621 8.22196 2.69756C7.82662 2.72986 7.4334 2.80118 7.05502 2.99397L7.963 4.77599C8.01245 4.75079 8.11316 4.71312 8.38483 4.69092C8.66817 4.66777 9.04044 4.66699 9.61699 4.66699V2.66699ZM7.41699 6.86699C7.41699 6.29044 7.41777 5.91817 7.44092 5.63483C7.46312 5.36316 7.50079 5.26245 7.52599 5.213L5.74397 4.30502C5.55118 4.6834 5.47986 5.07662 5.44756 5.47196C5.41621 5.85564 5.41699 6.32344 5.41699 6.86699H7.41699ZM7.05502 2.99397C6.49053 3.28159 6.03159 3.74053 5.74397 4.30502L7.52599 5.213C7.62186 5.02484 7.77484 4.87186 7.963 4.77599L7.05502 2.99397Z" fill="#697A8D"/>
</svg>
