<svg width="20" height="22" viewBox="0 0 20 22" fill="none" xmlns="http://www.w3.org/2000/svg">
<path d="M7.3942 19.0401V16.229C7.39418 15.5139 7.97711 14.9329 8.69934 14.9281H11.3449C12.0706 14.9281 12.6589 15.5105 12.6589 16.229V16.229V19.0489C12.6587 19.6559 13.1481 20.1521 13.7612 20.1663H15.5249C17.2831 20.1663 18.7084 18.7553 18.7084 17.0147V17.0147V9.01769C18.699 8.33293 18.3743 7.68991 17.8266 7.27162L11.7947 2.4612C10.7379 1.62361 9.23577 1.62361 8.17905 2.4612L2.1736 7.28035C1.62382 7.69694 1.29852 8.34103 1.29175 9.02642V17.0147C1.29175 18.7553 2.71705 20.1663 4.47525 20.1663H6.23896C6.86724 20.1663 7.37656 19.6621 7.37656 19.0401V19.0401" stroke="#384853" stroke-width="2" stroke-linecap="round" stroke-linejoin="round"/>
</svg>
