<svg width="144" height="28" viewBox="0 0 144 28" fill="none" xmlns="http://www.w3.org/2000/svg">
<rect x="2" y="4" width="22" height="22" rx="9" fill="#85E0A3"/>
<rect y="5" width="20" height="20" rx="8" fill="#098B6C"/>
<path d="M41.1937 11.9805V22H37.5375V9.32031H40.9711L41.1937 11.9805ZM40.725 15.2148L39.7992 15.2383C39.7992 14.3477 39.9047 13.5312 40.1156 12.7891C40.3344 12.0391 40.6508 11.3867 41.0648 10.832C41.4789 10.2773 41.9906 9.84766 42.6 9.54297C43.2172 9.23828 43.9281 9.08594 44.7328 9.08594C45.2953 9.08594 45.807 9.17188 46.268 9.34375C46.7289 9.50781 47.1234 9.76953 47.4516 10.1289C47.7875 10.4805 48.0453 10.9414 48.225 11.5117C48.4047 12.0742 48.4945 12.75 48.4945 13.5391V22H44.8383V13.9844C44.8383 13.4219 44.768 12.9961 44.6273 12.707C44.4945 12.4102 44.2992 12.207 44.0414 12.0977C43.7836 11.9883 43.475 11.9336 43.1156 11.9336C42.725 11.9336 42.3773 12.0195 42.0727 12.1914C41.7758 12.3555 41.5258 12.5859 41.3227 12.8828C41.1195 13.1797 40.9672 13.5273 40.8656 13.9258C40.7719 14.3242 40.725 14.7539 40.725 15.2148ZM48.1195 15.0273L46.9594 15.1211C46.9594 14.2617 47.0609 13.4648 47.2641 12.7305C47.4672 11.9961 47.7719 11.3594 48.1781 10.8203C48.5844 10.2734 49.0883 9.84766 49.6898 9.54297C50.2992 9.23828 51.0062 9.08594 51.8109 9.08594C52.4047 9.08594 52.9437 9.17188 53.4281 9.34375C53.9203 9.51562 54.3422 9.79297 54.6937 10.1758C55.0531 10.5586 55.3305 11.0625 55.5258 11.6875C55.7211 12.3047 55.8187 13.0625 55.8187 13.9609V22H52.1391V13.9609C52.1391 13.4062 52.0687 12.9844 51.9281 12.6953C51.7953 12.4062 51.6 12.207 51.3422 12.0977C51.0922 11.9883 50.7914 11.9336 50.4398 11.9336C50.0492 11.9336 49.7094 12.0156 49.4203 12.1797C49.1312 12.3359 48.8891 12.5547 48.6937 12.8359C48.4984 13.1094 48.3539 13.4336 48.2602 13.8086C48.1664 14.1836 48.1195 14.5898 48.1195 15.0273ZM65.5828 18.9766V13.5391C65.5828 13.1562 65.5242 12.8281 65.407 12.5547C65.2898 12.2812 65.1062 12.0664 64.8562 11.9102C64.6062 11.7539 64.282 11.6758 63.8836 11.6758C63.5477 11.6758 63.2547 11.7344 63.0047 11.8516C62.7625 11.9688 62.575 12.1367 62.4422 12.3555C62.3172 12.5742 62.2547 12.8438 62.2547 13.1641H58.5984C58.5984 12.5938 58.7273 12.0625 58.9852 11.5703C59.243 11.0781 59.6102 10.6445 60.0867 10.2695C60.5711 9.89453 61.1492 9.60547 61.8211 9.40234C62.493 9.19141 63.2469 9.08594 64.0828 9.08594C65.075 9.08594 65.9578 9.25391 66.7312 9.58984C67.5125 9.91797 68.1297 10.4141 68.5828 11.0781C69.0359 11.7344 69.2625 12.5625 69.2625 13.5625V18.8711C69.2625 19.6367 69.3055 20.2383 69.3914 20.6758C69.4852 21.1055 69.618 21.4805 69.7898 21.8008V22H66.0984C65.9266 21.6328 65.7977 21.1797 65.7117 20.6406C65.6258 20.0938 65.5828 19.5391 65.5828 18.9766ZM66.0398 14.2656L66.0633 16.2812H64.2469C63.8406 16.2812 63.4891 16.332 63.1922 16.4336C62.9031 16.5352 62.6687 16.6758 62.4891 16.8555C62.3094 17.0273 62.1766 17.2305 62.0906 17.4648C62.0125 17.6914 61.9734 17.9414 61.9734 18.2148C61.9734 18.4727 62.0359 18.707 62.1609 18.918C62.2859 19.1211 62.4578 19.2812 62.6766 19.3984C62.8953 19.5156 63.1492 19.5742 63.4383 19.5742C63.9148 19.5742 64.3211 19.4805 64.657 19.293C65.0008 19.1055 65.2664 18.8789 65.4539 18.6133C65.6414 18.3398 65.7352 18.0859 65.7352 17.8516L66.6141 19.375C66.4734 19.6875 66.3016 20.0117 66.0984 20.3477C65.8953 20.6758 65.6375 20.9844 65.325 21.2734C65.0125 21.5547 64.6336 21.7852 64.1883 21.9648C63.7508 22.1445 63.2234 22.2344 62.6062 22.2344C61.8094 22.2344 61.0867 22.0742 60.4383 21.7539C59.7898 21.4258 59.2703 20.9766 58.8797 20.4062C58.4969 19.8359 58.3055 19.1797 58.3055 18.4375C58.3055 17.7734 58.4266 17.1836 58.6687 16.668C58.9109 16.1523 59.2742 15.7148 59.7586 15.3555C60.2508 14.9961 60.868 14.7266 61.6102 14.5469C62.3523 14.3594 63.2195 14.2656 64.2117 14.2656H66.0398ZM75.8508 12.0273V22H72.1828V9.32031H75.6281L75.8508 12.0273ZM75.3703 15.2148L74.4562 15.2383C74.4562 14.2852 74.5734 13.4297 74.8078 12.6719C75.0422 11.9141 75.3742 11.2695 75.8039 10.7383C76.2414 10.1992 76.7609 9.78906 77.3625 9.50781C77.9719 9.22656 78.6437 9.08594 79.3781 9.08594C79.9719 9.08594 80.5148 9.17188 81.007 9.34375C81.4992 9.51562 81.9211 9.79297 82.2727 10.1758C82.632 10.5508 82.9055 11.0508 83.093 11.6758C83.2805 12.293 83.3742 13.0547 83.3742 13.9609V22H79.6945V13.9492C79.6945 13.418 79.6203 13.0078 79.4719 12.7188C79.3234 12.4297 79.1047 12.2266 78.8156 12.1094C78.5344 11.9922 78.1906 11.9336 77.7844 11.9336C77.3547 11.9336 76.9875 12.0195 76.6828 12.1914C76.3781 12.3555 76.1281 12.5859 75.9328 12.8828C75.7375 13.1797 75.593 13.5273 75.4992 13.9258C75.4133 14.3242 75.3703 14.7539 75.3703 15.2148ZM90.2203 9.32031V22H86.5523V9.32031H90.2203ZM86.3297 6.03906C86.3297 5.50781 86.5172 5.07422 86.8922 4.73828C87.2672 4.39453 87.7594 4.22266 88.3687 4.22266C88.9781 4.22266 89.4703 4.39453 89.8453 4.73828C90.2281 5.07422 90.4195 5.50781 90.4195 6.03906C90.4195 6.5625 90.2281 6.99609 89.8453 7.33984C89.4703 7.67578 88.9781 7.84375 88.3687 7.84375C87.7594 7.84375 87.2672 7.67578 86.8922 7.33984C86.5172 6.99609 86.3297 6.5625 86.3297 6.03906ZM98.0156 22H94.3359V8.24219C94.3359 7.26563 94.5273 6.44531 94.9102 5.78125C95.3008 5.11719 95.8516 4.61328 96.5625 4.26953C97.2734 3.92578 98.1133 3.75391 99.082 3.75391C99.418 3.75391 99.7305 3.77734 100.02 3.82422C100.316 3.86328 100.605 3.91797 100.887 3.98828V6.71875C100.738 6.67969 100.586 6.65234 100.43 6.63672C100.273 6.62109 100.086 6.61328 99.8672 6.61328C99.4766 6.61328 99.1406 6.67578 98.8594 6.80078C98.5859 6.91797 98.375 7.10156 98.2266 7.35156C98.0859 7.59375 98.0156 7.89062 98.0156 8.24219V22ZM100.523 9.32031V11.8867H92.4844V9.32031H100.523ZM108.401 22.2344C107.393 22.2344 106.491 22.0742 105.694 21.7539C104.897 21.4336 104.221 20.9922 103.666 20.4297C103.12 19.8594 102.702 19.2031 102.412 18.4609C102.123 17.7188 101.979 16.9258 101.979 16.082V15.6367C101.979 14.6914 102.112 13.8203 102.377 13.0234C102.643 12.2266 103.03 11.5352 103.537 10.9492C104.053 10.3555 104.686 9.89844 105.436 9.57812C106.186 9.25 107.041 9.08594 108.002 9.08594C108.901 9.08594 109.702 9.23438 110.405 9.53125C111.108 9.82031 111.702 10.2383 112.186 10.7852C112.67 11.3242 113.037 11.9766 113.287 12.7422C113.545 13.5 113.674 14.3516 113.674 15.2969V16.7969H103.455V14.4414H110.088V14.1602C110.088 13.7148 110.006 13.3242 109.842 12.9883C109.686 12.6523 109.452 12.3945 109.139 12.2148C108.834 12.0273 108.448 11.9336 107.979 11.9336C107.534 11.9336 107.162 12.0273 106.866 12.2148C106.569 12.4023 106.33 12.668 106.151 13.0117C105.979 13.3477 105.854 13.7422 105.776 14.1953C105.698 14.6406 105.659 15.1211 105.659 15.6367V16.082C105.659 16.5742 105.725 17.0234 105.858 17.4297C105.991 17.8359 106.186 18.1836 106.444 18.4727C106.702 18.7617 107.014 18.9883 107.381 19.1523C107.748 19.3164 108.166 19.3984 108.635 19.3984C109.213 19.3984 109.764 19.2891 110.287 19.0703C110.811 18.8438 111.264 18.4922 111.647 18.0156L113.358 19.9727C113.1 20.3477 112.737 20.7109 112.268 21.0625C111.807 21.4062 111.252 21.6875 110.604 21.9062C109.955 22.125 109.221 22.2344 108.401 22.2344ZM122.805 18.4727C122.805 18.2383 122.731 18.0312 122.583 17.8516C122.442 17.6719 122.184 17.5078 121.809 17.3594C121.442 17.2109 120.923 17.0625 120.251 16.9141C119.618 16.7812 119.028 16.6094 118.481 16.3984C117.934 16.1797 117.458 15.918 117.052 15.6133C116.645 15.3008 116.329 14.9336 116.102 14.5117C115.876 14.082 115.762 13.5938 115.762 13.0469C115.762 12.5156 115.876 12.0117 116.102 11.5352C116.337 11.0586 116.673 10.6367 117.11 10.2695C117.555 9.90234 118.095 9.61328 118.727 9.40234C119.368 9.19141 120.095 9.08594 120.907 9.08594C122.024 9.08594 122.989 9.26172 123.802 9.61328C124.614 9.95703 125.239 10.4414 125.677 11.0664C126.114 11.6836 126.333 12.3906 126.333 13.1875H122.677C122.677 12.8594 122.614 12.5742 122.489 12.332C122.364 12.0898 122.173 11.9023 121.915 11.7695C121.657 11.6289 121.317 11.5586 120.895 11.5586C120.567 11.5586 120.278 11.6172 120.028 11.7344C119.786 11.8438 119.595 11.9961 119.454 12.1914C119.321 12.3867 119.255 12.6133 119.255 12.8711C119.255 13.0508 119.294 13.2148 119.372 13.3633C119.458 13.5039 119.587 13.6367 119.759 13.7617C119.938 13.8789 120.169 13.9844 120.45 14.0781C120.739 14.1719 121.091 14.2617 121.505 14.3477C122.387 14.5117 123.192 14.7422 123.919 15.0391C124.653 15.3359 125.239 15.7461 125.677 16.2695C126.122 16.793 126.345 17.4844 126.345 18.3438C126.345 18.9062 126.216 19.4219 125.958 19.8906C125.708 20.3594 125.345 20.7695 124.868 21.1211C124.391 21.4727 123.821 21.7461 123.157 21.9414C122.493 22.1367 121.743 22.2344 120.907 22.2344C119.712 22.2344 118.7 22.0195 117.872 21.5898C117.044 21.1602 116.419 20.6211 115.997 19.9727C115.583 19.3164 115.376 18.6445 115.376 17.957H118.809C118.825 18.3789 118.93 18.7227 119.126 18.9883C119.329 19.2539 119.591 19.4492 119.911 19.5742C120.231 19.6914 120.591 19.75 120.989 19.75C121.387 19.75 121.72 19.6953 121.985 19.5859C122.251 19.4766 122.454 19.3281 122.595 19.1406C122.735 18.9453 122.805 18.7227 122.805 18.4727ZM135.429 9.32031V11.8867H127.905V9.32031H135.429ZM129.628 6.17969H133.296V18.0273C133.296 18.3789 133.339 18.6484 133.425 18.8359C133.511 19.0234 133.652 19.1562 133.847 19.2344C134.042 19.3047 134.292 19.3398 134.597 19.3398C134.816 19.3398 135.003 19.332 135.159 19.3164C135.316 19.3008 135.46 19.2812 135.593 19.2578V21.9062C135.28 22.0078 134.948 22.0859 134.597 22.1406C134.245 22.2031 133.862 22.2344 133.448 22.2344C132.659 22.2344 131.976 22.1055 131.398 21.8477C130.827 21.5898 130.39 21.1836 130.085 20.6289C129.78 20.0664 129.628 19.3359 129.628 18.4375V6.17969ZM137.986 20.2656C137.986 19.7344 138.173 19.2891 138.548 18.9297C138.931 18.5703 139.427 18.3906 140.037 18.3906C140.654 18.3906 141.146 18.5703 141.513 18.9297C141.888 19.2891 142.076 19.7344 142.076 20.2656C142.076 20.7891 141.888 21.2305 141.513 21.5898C141.146 21.9492 140.654 22.1289 140.037 22.1289C139.427 22.1289 138.931 21.9492 138.548 21.5898C138.173 21.2305 137.986 20.7891 137.986 20.2656Z" fill="#098B6C"/>
</svg>
