<svg width="20" height="21" viewBox="0 0 20 21" fill="none" xmlns="http://www.w3.org/2000/svg">
<path d="M19.8692 10.7276C19.87 10.0461 19.812 9.36591 19.6957 8.69434H10.2V12.5455H15.6387C15.5274 13.1606 15.2919 13.747 14.9462 14.2692C14.6006 14.7915 14.1521 15.2388 13.6277 15.5843V18.0841H16.8736C18.7741 16.344 19.8692 13.7705 19.8692 10.7276Z" fill="#4285F4"/>
<path d="M10.1999 20.4998C12.9172 20.4998 15.2051 19.6137 16.8735 18.086L13.6276 15.5861C12.7242 16.1944 11.5606 16.5416 10.1999 16.5416C7.57353 16.5416 5.34432 14.7834 4.54718 12.4141H1.20337V14.9903C2.04144 16.6465 3.32654 18.0387 4.91518 19.0116C6.50382 19.9844 8.33349 20.4997 10.1999 20.4998Z" fill="#34A853"/>
<path d="M4.5471 12.4136C4.12568 11.1721 4.12568 9.82757 4.5471 8.58603V6.00977H1.20329C0.498276 7.40296 0.131104 8.94059 0.131104 10.4998C0.131104 12.059 0.498276 13.5967 1.20329 14.9899L4.5471 12.4136Z" fill="#FBBC04"/>
<path d="M10.1999 4.45879C11.6359 4.43549 13.0234 4.97429 14.0626 5.95872L16.9365 3.10469C15.1141 1.40488 12.6999 0.471659 10.1999 0.500656C8.33349 0.500741 6.50382 1.01598 4.91518 1.98886C3.32654 2.96174 2.04144 4.35397 1.20337 6.0101L4.54718 8.58636C5.34432 6.21704 7.57353 4.45879 10.1999 4.45879Z" fill="#EA4335"/>
</svg>
