<svg width="22" height="22" viewBox="0 0 22 22" fill="none" xmlns="http://www.w3.org/2000/svg">
<path d="M1.75 17.4163C1.75 17.9686 2.19772 18.4163 2.75 18.4163C3.30228 18.4163 3.75 17.9686 3.75 17.4163H1.75ZM12.75 17.4163C12.75 17.9686 13.1977 18.4163 13.75 18.4163C14.3023 18.4163 14.75 17.9686 14.75 17.4163H12.75ZM13.75 9.08301C13.1977 9.08301 12.75 9.53072 12.75 10.083C12.75 10.6353 13.1977 11.083 13.75 11.083V9.08301ZM13.75 3.58301C13.1977 3.58301 12.75 4.03072 12.75 4.58301C12.75 5.13529 13.1977 5.58301 13.75 5.58301V3.58301ZM18.25 17.4163C18.25 17.9686 18.6977 18.4163 19.25 18.4163C19.8023 18.4163 20.25 17.9686 20.25 17.4163H18.25ZM15.125 11.833C14.5727 11.833 14.125 12.2807 14.125 12.833C14.125 13.3853 14.5727 13.833 15.125 13.833V11.833ZM3.75 17.4163V16.4997H1.75V17.4163H3.75ZM6.41667 13.833H10.0833V11.833H6.41667V13.833ZM12.75 16.4997V17.4163H14.75V16.4997H12.75ZM10 7.33301C10 8.29951 9.2165 9.08301 8.25 9.08301V11.083C10.3211 11.083 12 9.40408 12 7.33301H10ZM8.25 9.08301C7.2835 9.08301 6.5 8.29951 6.5 7.33301H4.5C4.5 9.40408 6.17893 11.083 8.25 11.083V9.08301ZM6.5 7.33301C6.5 6.36651 7.2835 5.58301 8.25 5.58301V3.58301C6.17893 3.58301 4.5 5.26194 4.5 7.33301H6.5ZM8.25 5.58301C9.2165 5.58301 10 6.36651 10 7.33301H12C12 5.26194 10.3211 3.58301 8.25 3.58301V5.58301ZM15.5 7.33301C15.5 8.29951 14.7165 9.08301 13.75 9.08301V11.083C15.8211 11.083 17.5 9.40408 17.5 7.33301H15.5ZM13.75 5.58301C14.7165 5.58301 15.5 6.36651 15.5 7.33301H17.5C17.5 5.26194 15.8211 3.58301 13.75 3.58301V5.58301ZM18.25 16.4997V17.4163H20.25V16.4997H18.25ZM15.125 13.833H15.5833V11.833H15.125V13.833ZM20.25 16.4997C20.25 13.9223 18.1607 11.833 15.5833 11.833V13.833C17.0561 13.833 18.25 15.0269 18.25 16.4997H20.25ZM10.0833 13.833C11.5561 13.833 12.75 15.0269 12.75 16.4997H14.75C14.75 13.9223 12.6607 11.833 10.0833 11.833V13.833ZM3.75 16.4997C3.75 15.0269 4.94391 13.833 6.41667 13.833V11.833C3.83934 11.833 1.75 13.9223 1.75 16.4997H3.75Z" fill="#697A8D"/>
</svg>
